<?xml version="1.0" encoding="utf-8"?>
<!-- Generator: Adobe Adobe Illustrator 24.2.0, SVG Export Plug-In . SVG Version: 6.00 Build 0)  -->
<svg version="1.1" id="Layer_1" xmlns="http://www.w3.org/2000/svg" xmlns:xlink="http://www.w3.org/1999/xlink" x="0px" y="0px"
	 width="93.26px" height="49.04px" viewBox="0 0 93.26 49.04" style="enable-background:new 0 0 93.26 49.04;" xml:space="preserve"
	>
<style type="text/css">
	.st0{fill:#735555;}
</style>
<g>
	<g>
		<g>
			<path class="st0" d="M69.46,7.39c-5.48-1.43-10.88,0.76-15.12,4.22c-4.8,3.91-7.74,9.36-10.71,14.68
				c-3.1,5.56-6.47,11.14-11.9,14.71c-4.93,3.24-11.1,4.5-16.68,2.2c-5.43-2.23-8.98-7.79-7.73-13.7c1.3-6.13,7.36-8.65,13.13-8.06
				c6.62,0.68,12.17,5.05,17.72,8.31c5.66,3.32,11.63,6.12,17.8,8.36c5.71,2.08,11.71,3.95,17.81,4.39
				c5.21,0.37,10.75-0.49,14.79-4.04c7.22-6.35,5.62-18.8-1.51-24.55c-4.17-3.36-9.67-4.64-14.94-4.12
				c-5.62,0.55-10.63,3.06-14.8,6.82c-8.95,8.08-13.59,20.62-24.45,26.64c-4.61,2.56-10.1,3.24-15.05,1.24
				c-4.92-1.98-8.14-6.76-7.06-12.13c1.13-5.64,5.8-9.94,11.26-11.35c6.65-1.72,13.67,0.2,19.73,3.02
				C53.24,29.38,65,39.29,78.56,36.2c4.85-1.1,9.4-4.35,11.67-8.82c2.3-4.53,1.7-9.76-1.42-13.74c-3.25-4.14-8.42-6.48-13.65-6.54
				c-6.33-0.08-12.38,2.69-17.47,6.26c-5.32,3.73-9.86,8.42-14.83,12.57c-5.03,4.2-10.64,7.67-16.67,10.23
				c-3.03,1.29-6.16,2.35-9.35,3.17c-2.92,0.75-6.01,1.51-9.04,1.55c-2.62,0.04-5.81-0.71-6.44-3.68c-0.72-3.34,1.95-6.06,4.71-7.39
				c5.22-2.52,11.64-2.86,17.34-2.63c6.09,0.25,12.11,1.36,18.08,2.51c11.36,2.18,23.32,4.82,34.78,1.81
				c4.63-1.22,10.21-3.85,11.64-8.89c1.45-5.1-3.28-8.92-8-9.05c-2.94-0.08-5.77,1.09-8.32,2.44c-3.05,1.62-5.98,3.5-8.9,5.34
				c-5.71,3.61-11.39,7.32-17.49,10.25c-6.07,2.91-12.68,5.01-19.45,5.21c-3.22,0.09-6.94-0.05-9.93-1.37
				c-1.17-0.52-2.41-1.39-2.52-2.78c-0.12-1.46,1.11-2.5,2.28-3.13c2.63-1.42,5.98-1.46,8.89-1.54c3.43-0.09,6.86,0.17,10.27,0.55
				c6.64,0.75,13.23,2.03,19.91,2.46c6.03,0.39,12.65,0.23,18.26-2.3c4.69-2.12,8.68-7.07,7.17-12.49
				c-1.47-5.27-7.67-6.68-12.38-5.39c-3.05,0.84-5.77,2.53-8.42,4.2c-3.1,1.95-6.19,3.91-9.29,5.86c-6.33,4-12.66,7.99-18.99,11.99
				c-5.02,3.17-11.37,8.35-17.68,5.97c-2.51-0.95-4.59-3.14-4.44-5.97c0.15-2.9,2.55-5.17,4.89-6.57
				c5.27-3.15,12.25-3.24,18.16-2.47c6.72,0.88,13.2,3.1,19.58,5.3c6.33,2.18,12.78,4.71,19.45,5.61
				c5.65,0.76,11.83-0.33,15.16-5.42c2.74-4.2,1.61-9.38-2.57-12.1c-4.6-3-10.25-1.96-14.64,0.89c-5.33,3.46-8.72,8.95-13.12,13.4
				c-4.35,4.4-9.93,7.37-15.99,8.58c-5.75,1.15-12.45,0.87-17.7-1.99c-2.79-1.52-5.07-3.96-5.72-7.15
				c-0.58-2.84,0.36-5.76,2.79-7.44c4.49-3.11,10.98-1.65,15.95-0.87c7.32,1.14,14.63,2.28,21.95,3.42
				c6.78,1.06,13.9,2.74,20.78,1.57c5.07-0.86,10.23-3.81,12.32-8.71c1.96-4.6,0.49-9.8-2.65-13.49c-3.51-4.12-8.84-5.86-14.16-5.32
				c-5.84,0.59-11.12,3.5-15.33,7.49c-9.56,9.05-13.37,22.36-22.48,31.75c-4.25,4.37-9.83,7.94-16.05,8.38
				c-2.89,0.21-5.99-0.28-8.38-2.02c-2.33-1.7-3.4-4.43-3.19-7.27c0.47-6.33,6.05-10.08,11.79-11.27c6.19-1.29,12.74-0.34,18.83,1
				c11.83,2.6,23.76,7.67,36.09,6.34c4.84-0.53,10.9-2.01,13.48-6.63c2.63-4.72-1.19-9.74-6-10.69c-3.16-0.62-6.39,0.13-9.37,1.18
				c-2.96,1.05-5.8,2.41-8.55,3.93c-5.83,3.22-11.25,7.12-17.14,10.24c-5.98,3.16-12.63,5.62-19.49,5.2
				c-2.52-0.15-5.6-0.9-7.15-3.09c-1.71-2.41-0.05-4.91,2.22-6.08c2.33-1.2,4.98-1.43,7.54-1.71c3.55-0.39,7.1-0.77,10.65-1.16
				c7.19-0.78,14.37-1.57,21.56-2.35c0.8-0.09,0.81-1.35,0-1.26c-7.43,0.81-14.87,1.62-22.3,2.43c-3.8,0.41-7.6,0.82-11.4,1.24
				c-2.3,0.25-4.61,0.66-6.69,1.72c-1.82,0.94-3.37,2.5-3.53,4.63c-0.17,2.16,1.14,3.95,2.89,5.07c4.76,3.08,11.65,1.98,16.75,0.47
				c12.98-3.85,22.83-14.02,35.6-18.28c3.28-1.1,7.16-1.86,10.37-0.16c2.59,1.37,4.4,4.23,3.34,7.17c-0.94,2.62-3.62,4.35-6.09,5.34
				c-2.8,1.12-5.92,1.56-8.91,1.7c-12.72,0.58-24.73-4.98-37.06-7.16c-9.71-1.71-25.78-1.96-28.45,10.49
				c-1.1,5.14,1.51,9.81,6.49,11.52c5.36,1.84,11.42,0.23,16.14-2.55c11.27-6.63,16.01-19.43,23.1-29.72
				c3.63-5.27,8.14-10.19,14.09-12.83c5.54-2.45,12.46-2.88,17.51,0.91c4.23,3.17,6.93,9.03,4.84,14.18
				c-2.41,5.95-9.27,8.35-15.2,8.49c-3.63,0.09-7.23-0.47-10.81-1.02c-3.78-0.59-7.56-1.18-11.34-1.77
				c-7.01-1.09-14.01-2.39-21.05-3.25c-4.43-0.54-10.05-0.67-13.44,2.79c-3.79,3.88-2.45,10.09,1.23,13.54
				c4.16,3.89,10.5,5.03,16.01,4.9c5.77-0.14,11.52-1.84,16.43-4.89c5.44-3.39,8.99-8.55,13.28-13.17
				c3.95-4.26,9.69-8.59,15.86-6.87c2.45,0.68,4.8,2.28,5.85,4.67c1.27,2.88,0.18,6.1-1.86,8.32c-4.87,5.27-12.69,3.9-18.85,2.22
				C52.5,28.75,40.18,22.3,26.8,22.19C21.24,22.15,14.96,23.1,10.7,27c-1.66,1.52-2.96,3.55-3.07,5.85
				c-0.11,2.34,1.07,4.47,2.91,5.86c4.7,3.54,10.58,1.61,15.16-1.06c6.32-3.69,12.42-7.8,18.61-11.7
				c6.19-3.91,12.29-8.08,18.65-11.71c2.75-1.57,5.82-2.89,9.05-2.64c3,0.23,6.02,1.86,6.86,4.93c0.78,2.81-0.28,5.94-2.22,8.04
				c-2.19,2.37-5.31,3.63-8.39,4.35c-6.57,1.52-13.45,1.01-20.08,0.18c-6.7-0.85-13.37-2.11-20.13-2.35
				c-3.17-0.11-6.37-0.02-9.51,0.5c-2.14,0.35-4.67,1.27-5.89,3.19c-1.14,1.8-0.52,3.94,1.08,5.21c2.19,1.73,5.41,2.07,8.09,2.31
				c6.52,0.57,13.11-0.83,19.18-3.17c6.26-2.41,12.04-5.86,17.7-9.41c2.83-1.78,5.64-3.6,8.5-5.34c2.92-1.79,5.92-3.76,9.24-4.71
				c2.83-0.81,6.06-0.67,8.42,1.28c2.4,1.98,2.54,5.15,0.9,7.66c-3.28,5.02-10.2,6.54-15.77,7.11C57.95,32.56,46.05,29,34.26,27.1
				c-5.77-0.93-11.65-1.56-17.5-1.07c-2.78,0.23-5.56,0.71-8.24,1.51c-2.59,0.77-5.27,1.96-6.95,4.17c-1.44,1.89-2.07,4.55-1.1,6.79
				c0.93,2.14,3.08,3.2,5.29,3.5c2.63,0.36,5.31-0.15,7.88-0.66c3.21-0.64,6.38-1.53,9.46-2.64c5.95-2.14,11.61-5.11,16.73-8.82
				c5.36-3.89,9.97-8.66,15.1-12.84c5.19-4.23,11.31-8,18.13-8.61c5.76-0.52,11.79,1.67,15.2,6.52c3.39,4.82,2.52,10.87-1.41,15.09
				c-4.39,4.71-10.85,6.09-17.05,5.14c-13.6-2.08-23.75-13.03-37.22-15.55c-5.78-1.08-12.21-0.6-17.02,3.09
				c-3.86,2.96-6.68,7.85-6.22,12.83C10.3,45.9,23,48.93,31.22,45.45c11.43-4.83,16.6-17.12,24.67-25.68
				c4.15-4.4,9.21-7.74,15.29-8.62c5.62-0.81,11.82,0.5,16,4.52c3.65,3.5,5.38,8.91,4.68,13.89c-0.76,5.44-4.59,9.52-9.84,11
				c-5.56,1.57-11.59,0.55-17.05-0.93c-6.67-1.8-13.16-4.25-19.36-7.31c-3.04-1.5-6.01-3.16-8.9-4.93
				c-2.81-1.73-5.58-3.54-8.58-4.94c-4.92-2.3-10.75-3.41-15.87-1.02c-4.67,2.18-6.97,7.18-6.3,12.19c0.7,5.28,4.52,9.31,9.46,11.05
				c5.33,1.89,11.15,0.86,15.95-1.96c5.27-3.1,8.88-8.02,11.9-13.21c3.02-5.2,5.61-10.83,9.91-15.13c4.14-4.15,9.98-7.33,15.97-5.77
				C69.91,8.8,70.25,7.59,69.46,7.39L69.46,7.39z"/>
		</g>
	</g>
</g>
</svg>
